REM DIRINDEX 1\2,1\4,1\5,1\6,1\7,1\3\8,1\3\9,1\3\10
REM DIRNAME folder01,folder02,folder03,folder04,folder05,folder06,folder07,folder08,folder09,folder10
TITLE ""
FILE "DB4500_5th_4B_35.mp3" MP3
  TRACK 01 AUDIO
    TITLE "0:"
    INDEX 01 00:00:00
  TRACK 02 AUDIO
    TITLE "8:cjc113_3077"
    INDEX 01 00:00:03
  TRACK 03 AUDIO
    TITLE "0:"
    INDEX 01 00:01:28
  TRACK 04 AUDIO
    TITLE "9:cjc113_3078"
    INDEX 01 00:01:50
  TRACK 05 AUDIO
    TITLE "0:"
    INDEX 01 00:03:02
  TRACK 06 AUDIO
    TITLE "10:cjc113_3079"
    INDEX 01 00:03:23
  TRACK 07 AUDIO
    TITLE "0:"
    INDEX 01 00:06:02
  TRACK 08 AUDIO
    TITLE "8:cjc113_3080"
    INDEX 01 00:06:51
  TRACK 09 AUDIO
    TITLE "0:"
    INDEX 01 00:07:64
  TRACK 10 AUDIO
    TITLE "9:cjc113_3081"
    INDEX 01 00:08:11
  TRACK 11 AUDIO
    TITLE "0:"
    INDEX 01 00:09:34
  TRACK 12 AUDIO
    TITLE "10:cjc113_3082"
    INDEX 01 00:09:57
  TRACK 13 AUDIO
    TITLE "0:"
    INDEX 01 00:12:67
  TRACK 14 AUDIO
    TITLE "8:cjc113_3083"
    INDEX 01 00:13:39
  TRACK 15 AUDIO
    TITLE "0:"
    INDEX 01 00:14:58
  TRACK 16 AUDIO
    TITLE "9:cjc113_3084"
    INDEX 01 00:15:07
  TRACK 17 AUDIO
    TITLE "0:"
    INDEX 01 00:16:34
  TRACK 18 AUDIO
    TITLE "10:cjc113_3085"
    INDEX 01 00:16:55
  TRACK 19 AUDIO
    TITLE "0:"
    INDEX 01 00:20:55
  TRACK 20 AUDIO
    TITLE "8:cjc113_3086"
    INDEX 01 00:21:23
  TRACK 21 AUDIO
    TITLE "0:"
    INDEX 01 00:22:34
  TRACK 22 AUDIO
    TITLE "9:cjc113_3087"
    INDEX 01 00:22:58
  TRACK 23 AUDIO
    TITLE "0:"
    INDEX 01 00:24:31
  TRACK 24 AUDIO
    TITLE "10:cjc113_3088"
    INDEX 01 00:24:55
  TRACK 25 AUDIO
    TITLE "0:"
    INDEX 01 00:27:61
  TRACK 26 AUDIO
    TITLE "8:cjc113_3089"
    INDEX 01 00:28:35
  TRACK 27 AUDIO
    TITLE "0:"
    INDEX 01 00:29:46
  TRACK 28 AUDIO
    TITLE "9:cjc113_3090"
    INDEX 01 00:29:68
  TRACK 29 AUDIO
    TITLE "0:"
    INDEX 01 00:31:14
  TRACK 30 AUDIO
    TITLE "10:cjc113_3091"
    INDEX 01 00:31:33
  TRACK 31 AUDIO
    TITLE "0:"
    INDEX 01 00:35:63
  TRACK 32 AUDIO
    TITLE "8:cjc113_3092"
    INDEX 01 00:36:31
  TRACK 33 AUDIO
    TITLE "0:"
    INDEX 01 00:37:52
  TRACK 34 AUDIO
    TITLE "9:cjc113_3093"
    INDEX 01 00:38:00
  TRACK 35 AUDIO
    TITLE "0:"
    INDEX 01 00:39:23
  TRACK 36 AUDIO
    TITLE "10:cjc113_3094"
    INDEX 01 00:39:43
  TRACK 37 AUDIO
    TITLE "0:"
    INDEX 01 00:43:05
  TRACK 38 AUDIO
    TITLE "8:cjc113_3095"
    INDEX 01 00:43:52
  TRACK 39 AUDIO
    TITLE "0:"
    INDEX 01 00:44:65
  TRACK 40 AUDIO
    TITLE "9:cjc113_3096"
    INDEX 01 00:45:12
  TRACK 41 AUDIO
    TITLE "0:"
    INDEX 01 00:46:37
  TRACK 42 AUDIO
    TITLE "10:cjc113_3097"
    INDEX 01 00:46:62
  TRACK 43 AUDIO
    TITLE "0:"
    INDEX 01 00:49:49
  TRACK 44 AUDIO
    TITLE "8:cjc113_3098"
    INDEX 01 00:50:21
  TRACK 45 AUDIO
    TITLE "0:"
    INDEX 01 00:51:32
  TRACK 46 AUDIO
    TITLE "9:cjc113_3099"
    INDEX 01 00:51:56
  TRACK 47 AUDIO
    TITLE "0:"
    INDEX 01 00:53:35
  TRACK 48 AUDIO
    TITLE "10:cjc113_3100"
    INDEX 01 00:53:57
  TRACK 49 AUDIO
    TITLE "0:"
    INDEX 01 00:58:17
  TRACK 50 AUDIO
    TITLE "8:cjc113_3101"
    INDEX 01 00:58:66
  TRACK 51 AUDIO
    TITLE "0:"
    INDEX 01 01:00:02
  TRACK 52 AUDIO
    TITLE "9:cjc113_3102"
    INDEX 01 01:00:23
  TRACK 53 AUDIO
    TITLE "0:"
    INDEX 01 01:01:52
  TRACK 54 AUDIO
    TITLE "10:cjc113_3103"
    INDEX 01 01:02:01
  TRACK 55 AUDIO
    TITLE "0:"
    INDEX 01 01:05:22
  TRACK 56 AUDIO
    TITLE "8:cjc113_3104"
    INDEX 01 01:05:73
  TRACK 57 AUDIO
    TITLE "0:"
    INDEX 01 01:07:14
  TRACK 58 AUDIO
    TITLE "9:cjc113_3105"
    INDEX 01 01:07:37
  TRACK 59 AUDIO
    TITLE "0:"
    INDEX 01 01:08:58
  TRACK 60 AUDIO
    TITLE "10:cjc113_3106"
    INDEX 01 01:09:05
  TRACK 61 AUDIO
    TITLE "0:"
    INDEX 01 01:14:17
  TRACK 62 AUDIO
    TITLE "8:cjc113_3107"
    INDEX 01 01:14:61
  TRACK 63 AUDIO
    TITLE "0:"
    INDEX 01 01:16:05
  TRACK 64 AUDIO
    TITLE "9:cjc113_3108"
    INDEX 01 01:16:28
  TRACK 65 AUDIO
    TITLE "0:"
    INDEX 01 01:17:49
  TRACK 66 AUDIO
    TITLE "10:cjc113_3109"
    INDEX 01 01:17:71
  TRACK 67 AUDIO
    TITLE "0:"
    INDEX 01 01:22:64
